<svg width="606" height="152" viewBox="0 0 606 152" fill="none" xmlns="http://www.w3.org/2000/svg">
<g clip-path="url(#clip0_827_9792)">
<path opacity="0.5" d="M267.56 128.43H261.45C258.875 128.43 256.405 127.407 254.584 125.586C252.763 123.765 251.74 121.295 251.74 118.72C251.74 116.142 250.716 113.67 248.893 111.847C247.07 110.024 244.598 109 242.02 109H233.6C223.97 109 229.89 100 217.6 100C215.024 100.003 212.554 101.028 210.733 102.85C208.913 104.673 207.89 107.144 207.89 109.72V118.72C207.887 121.289 206.868 123.753 205.054 125.573C203.24 127.392 200.779 128.419 198.21 128.43H180.38C176.566 128.43 172.909 129.945 170.212 132.642C167.515 135.339 166 138.996 166 142.81C166 146.624 167.515 150.281 170.212 152.978C172.909 155.675 176.566 157.19 180.38 157.19H267.56C271.374 157.19 275.031 155.675 277.728 152.978C280.425 150.281 281.94 146.624 281.94 142.81C281.94 138.996 280.425 135.339 277.728 132.642C275.031 129.945 271.374 128.43 267.56 128.43Z" fill="white"/>
<path opacity="0.5" d="M539.84 56.3301H530.84C527.756 56.3301 524.797 55.1048 522.616 52.9237C520.435 50.7427 519.21 47.7845 519.21 44.7001C519.135 41.7331 517.906 38.9123 515.785 36.8362C513.664 34.7601 510.818 33.5921 507.85 33.5801H498.48C496.897 33.2546 495.476 32.3917 494.457 31.1377C493.438 29.8837 492.885 28.3158 492.89 26.7001C492.843 24.9102 492.1 23.2091 490.82 21.9581C489.539 20.7071 487.82 20.0047 486.03 20.0001H484.94C483.138 19.9917 481.404 20.6911 480.112 21.9478C478.819 23.2044 478.072 24.9181 478.03 26.7201C478.035 28.3358 477.482 29.9037 476.463 31.1577C475.444 32.4117 474.023 33.2746 472.44 33.6001H467.44C464.472 33.6121 461.626 34.7801 459.505 36.8562C457.384 38.9323 456.155 41.7531 456.08 44.7201C456.08 47.8045 454.855 50.7627 452.674 52.9437C450.493 55.1248 447.534 56.3501 444.45 56.3501H445.17C440.616 56.3501 436.249 58.1591 433.029 61.3791C429.809 64.5991 428 68.9663 428 73.5201C428 78.0738 429.809 82.4411 433.029 85.6611C436.249 88.8811 440.616 90.6901 445.17 90.6901H539.84C544.394 90.6901 548.761 88.8811 551.981 85.6611C555.201 82.4411 557.01 78.0738 557.01 73.5201C557.01 68.9663 555.201 64.5991 551.981 61.3791C548.761 58.1591 544.394 56.3501 539.84 56.3501V56.3301Z" fill="white"/>
<path opacity="0.5" d="M11.94 50.82H18.21C20.3556 50.82 22.4133 49.9677 23.9305 48.4505C25.4477 46.9333 26.3 44.8756 26.3 42.73C26.347 40.667 27.1983 38.7039 28.6723 37.2598C30.1464 35.8156 32.1264 35.0047 34.19 35H46.27C48.3338 35.0072 50.3135 35.8186 51.7886 37.2619C53.2637 38.7053 54.118 40.6669 54.17 42.73C54.17 44.8739 55.021 46.9301 56.536 48.447C58.051 49.9639 60.1061 50.8174 62.25 50.82H61.75C64.9167 50.82 67.9537 52.078 70.1929 54.3171C72.432 56.5563 73.69 59.5933 73.69 62.76C73.69 65.9267 72.432 68.9637 70.1929 71.2029C67.9537 73.442 64.9167 74.7 61.75 74.7H11.94C10.372 74.7 8.81939 74.3912 7.37076 73.7911C5.92213 73.1911 4.60588 72.3116 3.49715 71.2029C2.38842 70.0941 1.50892 68.7779 0.908882 67.3292C0.308841 65.8806 0 64.328 0 62.76C0 61.192 0.308841 59.6394 0.908882 58.1908C1.50892 56.7421 2.38842 55.4259 3.49715 54.3171C4.60588 53.2084 5.92213 52.3289 7.37076 51.7289C8.81939 51.1288 10.372 50.82 11.94 50.82Z" fill="white"/>
</g>
<defs>
<clipPath id="clip0_827_9792">
<rect width="605.84" height="151.95" fill="white"/>
</clipPath>
</defs>
</svg>
