<svg width="172" height="42" viewBox="0 0 172 42" fill="none" xmlns="http://www.w3.org/2000/svg">
<path d="M24.2841 27.281L25.7977 25.7675V16.5795C25.7977 16.2956 25.6849 16.0233 25.4841 15.8226C25.2834 15.6218 25.0111 15.509 24.7272 15.509C24.4433 15.509 24.171 15.6218 23.9703 15.8226C23.7695 16.0233 23.6567 16.2956 23.6567 16.5795V25.9001C23.0382 26.169 22.5448 26.6625 22.2758 27.281H17.2371C17.0958 27.2816 16.956 27.3105 16.826 27.3661C16.696 27.4216 16.5785 27.5027 16.4804 27.6044C16.3307 27.7541 16.2288 27.9448 16.1875 28.1524C16.1463 28.36 16.1675 28.5752 16.2485 28.7708C16.3295 28.9663 16.4666 29.1335 16.6426 29.2511C16.8186 29.3688 17.0255 29.4316 17.2371 29.4316H22.1432L23.6567 27.9181L24.2841 27.281Z" fill="#64BF7F"/>
<path d="M33.2845 28.3515C33.2845 28.0676 33.1717 27.7953 32.971 27.5945C32.7702 27.3938 32.498 27.281 32.2141 27.281H27.3112L27.2174 27.3748L25.7977 28.7946L25.1703 29.422L23.7505 30.8417L23.6567 30.9355V40.1234C23.6567 40.4074 23.7695 40.6796 23.9703 40.8804C24.171 41.0811 24.4433 41.1939 24.7272 41.1939C25.0111 41.1939 25.2834 41.0811 25.4842 40.8804C25.6849 40.6796 25.7977 40.4074 25.7977 40.1234V30.8029C26.4162 30.5339 26.9096 30.0404 27.1786 29.422H32.2205C32.5033 29.4202 32.7739 29.3067 32.9733 29.1061C33.1726 28.9056 33.2845 28.6343 33.2845 28.3515Z" fill="#64BF7F"/>
<path d="M34.2323 32.0963H32.2207V34.1111C32.2207 34.9723 32.3905 35.8249 32.7204 36.6203C33.0504 37.4157 33.5339 38.1382 34.1434 38.7465C34.7529 39.3548 35.4764 39.837 36.2724 40.1653C37.0685 40.4937 37.9215 40.6618 38.7826 40.6601H40.7942V38.6453C40.7942 37.7842 40.6244 36.9315 40.2944 36.1361C39.9645 35.3407 39.481 34.6182 38.8715 34.0099C38.262 33.4016 37.5385 32.9195 36.7424 32.5911C35.9464 32.2628 35.0934 32.0946 34.2323 32.0963Z" fill="#CC385C"/>
<path d="M47.1912 26.9284C46.583 26.3201 45.861 25.8377 45.0664 25.5085C44.2718 25.1793 43.4201 25.0099 42.56 25.0099C41.6999 25.0099 40.8482 25.1793 40.0536 25.5085C39.259 25.8377 38.537 26.3201 37.9288 26.9284L36.5059 28.3514L37.9288 29.7744C38.537 30.3826 39.259 30.8651 40.0536 31.1942C40.8482 31.5234 41.6999 31.6928 42.56 31.6928C43.4201 31.6928 44.2718 31.5234 45.0664 31.1942C45.861 30.8651 46.583 30.3826 47.1912 29.7744L48.6142 28.3514L47.1912 26.9284Z" fill="#CC385C"/>
<path d="M32.2207 22.5916V24.6064H34.2323C35.9692 24.6064 37.6349 23.9164 38.8631 22.6882C40.0913 21.4601 40.7812 19.7943 40.7812 18.0574V16.0361H38.7826C37.9209 16.0344 37.0674 16.2028 36.271 16.5316C35.4745 16.8603 34.7507 17.343 34.1411 17.952C33.5316 18.561 33.0481 19.2843 32.7186 20.0804C32.389 20.8766 32.2199 21.7299 32.2207 22.5916Z" fill="#CC385C"/>
<path d="M37.0364 10.0304V8.01563H35.0249C33.2877 8.01562 31.6216 8.7055 30.3929 9.93358C29.1642 11.1617 28.4735 12.8274 28.4727 14.5646V16.5794H30.4875C32.2244 16.5794 33.8901 15.8894 35.1183 14.6613C36.3465 13.4331 37.0364 11.7673 37.0364 10.0304Z" fill="#00BFFF"/>
<path d="M18.9704 16.5794H20.9949V14.5646C20.9949 12.8277 20.305 11.1619 19.0768 9.93377C17.8486 8.7056 16.1829 8.01563 14.446 8.01562H12.4312V10.0304C12.432 11.7654 13.1209 13.4292 14.3468 14.6569C15.5727 15.8846 17.2355 16.576 18.9704 16.5794Z" fill="#00BFFF"/>
<path d="M24.7277 12.2975L26.1507 10.8745C26.7589 10.2664 27.2414 9.54439 27.5706 8.74977C27.8998 7.95515 28.0692 7.10347 28.0692 6.24336C28.0692 5.38326 27.8998 4.53157 27.5706 3.73695C27.2414 2.94233 26.7589 2.22033 26.1507 1.61219L24.7277 0.189209L23.3047 1.61219C22.6965 2.22033 22.214 2.94233 21.8848 3.73695C21.5557 4.53157 21.3862 5.38326 21.3862 6.24336C21.3862 7.10347 21.5557 7.95515 21.8848 8.74977C22.214 9.54439 22.6965 10.2664 23.3047 10.8745L24.7277 12.2975Z" fill="#00BFFF"/>
<path d="M15.2228 24.6064H17.2376V22.5916C17.238 21.7308 17.0689 20.8785 16.7398 20.0832C16.4107 19.2878 15.9281 18.5651 15.3197 17.9564C14.7112 17.3476 13.9887 16.8647 13.1936 16.5352C12.3984 16.2057 11.5461 16.0361 10.6854 16.0361H8.67383V18.051C8.67298 18.9115 8.84175 19.7638 9.17049 20.5591C9.49922 21.3544 9.98148 22.0771 10.5897 22.6859C11.1979 23.2948 11.9201 23.7777 12.7151 24.1072C13.5101 24.4368 14.3622 24.6064 15.2228 24.6064Z" fill="#F9B417"/>
<path d="M12.9555 28.3514L11.5325 26.9284C10.9243 26.3201 10.2023 25.8377 9.40773 25.5085C8.61311 25.1793 7.76143 25.0099 6.90132 25.0099C6.04121 25.0099 5.18953 25.1793 4.39491 25.5085C3.60029 25.8377 2.8783 26.3201 2.27016 26.9284L0.847168 28.3514L2.27016 29.7744C2.8783 30.3826 3.60029 30.8651 4.39491 31.1942C5.18953 31.5234 6.04121 31.6928 6.90132 31.6928C7.76143 31.6928 8.61311 31.5234 9.40773 31.1942C10.2023 30.8651 10.9243 30.3826 11.5325 29.7744L12.9555 28.3514Z" fill="#F9B417"/>
<path d="M8.67383 38.6454V40.6602H10.6854C12.4226 40.6602 14.0887 39.9703 15.3174 38.7423C16.5461 37.5142 17.2368 35.8484 17.2376 34.1113V32.0964H15.2228C13.4859 32.0964 11.8201 32.7864 10.592 34.0146C9.36381 35.2428 8.67383 36.9085 8.67383 38.6454Z" fill="#F9B417"/>
<path d="M111.154 17.8829C110.257 17.0004 109.191 16.3075 108.021 15.8454C106.835 15.3761 105.568 15.147 104.292 15.1714C102.586 15.1569 100.904 15.5861 99.4135 16.4168C97.9539 17.2083 96.7301 18.3723 95.8665 19.7903C95.0499 21.1391 94.6057 22.6804 94.5794 24.2569C94.5531 25.8335 94.9455 27.3887 95.7168 28.764C96.4786 30.1159 97.5614 31.2595 98.8696 32.0942C100.214 32.9529 101.743 33.4785 103.331 33.6272C104.919 33.7781 106.52 33.5526 108.005 32.9691C109.469 32.4001 110.773 31.483 111.804 30.2971C112.81 29.1356 113.505 27.7374 113.822 26.2339C114.134 24.744 114.054 23.1986 113.589 21.749C113.114 20.2764 112.277 18.947 111.154 17.8829ZM110.204 26.7383C109.88 27.4764 109.406 28.1393 108.813 28.6852C107.756 29.6748 106.397 30.2812 104.955 30.4074C103.503 30.5413 102.049 30.1922 100.816 29.4143C99.6172 28.6562 98.7218 27.5014 98.2863 26.1511C97.8616 24.8208 97.9387 23.381 98.5031 22.1037C99.0799 20.801 100.093 19.7403 101.368 19.1046C102.672 18.4488 104.155 18.2411 105.589 18.5134C107.009 18.7777 108.297 19.5137 109.246 20.6022C110.169 21.6592 110.68 23.0137 110.685 24.4171C110.69 25.2161 110.526 26.0072 110.204 26.7383Z" fill="#004964"/>
<path d="M147.687 17.863C147.466 17.6462 147.234 17.4374 146.989 17.2403C146.254 16.6486 145.433 16.1728 144.554 15.8294C143.368 15.3599 142.101 15.1308 140.826 15.1555C139.119 15.1455 137.439 15.5744 135.947 16.4009C135.022 16.904 134.187 17.5565 133.476 18.332C133.227 18.6075 132.994 18.8969 132.778 19.199C132.648 19.3842 132.522 19.5734 132.384 19.7665C131.532 21.153 131.084 22.7501 131.091 24.3775V24.6652C131.061 25.5192 130.836 26.3548 130.433 27.1086C130.433 27.1402 130.406 27.1717 130.386 27.2032C130.267 27.4111 130.136 27.6112 129.992 27.8023C129.763 28.1147 129.506 28.405 129.223 28.6693C127.997 29.8089 126.385 30.4423 124.711 30.4423C123.037 30.4423 121.425 29.8089 120.198 28.6693C119.917 28.4049 119.661 28.1147 119.434 27.8023C118.751 26.8896 118.366 25.7888 118.33 24.6494V24.3854C118.338 23.1789 118.716 22.0039 119.414 21.0198C120.134 20.0155 121.131 19.243 122.283 18.797C123.452 18.3405 124.727 18.2217 125.96 18.4542C127.184 18.6831 128.317 19.259 129.223 20.1133C129.681 20.542 130.072 21.0376 130.382 21.5833C130.627 20.7527 130.979 19.9577 131.43 19.2187C131.619 18.9061 131.825 18.6047 132.049 18.3162C131.895 18.1546 131.738 17.9931 131.572 17.8394C130.677 16.9543 129.611 16.261 128.439 15.8018C127.253 15.3338 125.986 15.1048 124.711 15.1279C123.438 15.1235 122.176 15.3589 120.99 15.8216C119.82 16.2779 118.75 16.9564 117.838 17.8197C116.941 18.6668 116.224 19.6853 115.729 20.8148C115.241 21.9332 114.991 23.1413 114.996 24.3617V24.6455C115.003 25.0029 115.032 25.3596 115.083 25.7135C115.083 25.7135 115.083 25.7135 115.083 25.7332V29.1067V41.1938H118.449V31.428C118.767 31.695 119.103 31.9412 119.453 32.165C121.049 33.1219 122.874 33.6274 124.734 33.6274C126.595 33.6274 128.42 33.1219 130.015 32.165C130.397 31.9262 130.763 31.6629 131.111 31.3768V32.7128V41.1938H134.441V32.697V24.4209C134.431 23.4359 134.679 22.4655 135.162 21.607C135.469 21.066 135.856 20.5744 136.309 20.1488C137.215 19.2964 138.346 18.7219 139.568 18.4936C140.802 18.2571 142.076 18.3746 143.245 18.8325C143.391 18.8916 143.529 18.9507 143.667 19.0177C144.636 19.4776 145.471 20.1793 146.091 21.0552C146.784 22.0349 147.156 23.2052 147.156 24.4051C147.156 25.605 146.784 26.7753 146.091 27.755C145.376 28.7599 144.383 29.5338 143.234 29.9816C142.065 30.4395 140.79 30.557 139.557 30.3206C138.948 30.2072 138.359 30.0082 137.807 29.7294C137.26 29.4493 136.755 29.0923 136.309 28.6693C136.028 28.4063 135.772 28.1173 135.545 27.8062V32.1413C135.801 32.299 136.065 32.4448 136.333 32.5827C138.204 33.5218 140.319 33.8604 142.39 33.5522C144.744 33.2122 146.896 32.0322 148.448 30.2299C149.951 28.4771 150.717 26.2099 150.584 23.9046C150.429 21.5937 149.392 19.4308 147.687 17.863Z" fill="#004964"/>
<path d="M171.144 24.4013C171.144 24.3422 171.144 24.287 171.144 24.2318V24.1688C171.103 22.965 170.823 21.7815 170.319 20.6873C169.816 19.5931 169.1 18.6103 168.212 17.7961C166.363 16.0996 163.946 15.1575 161.437 15.1556C160.164 15.1539 158.902 15.3918 157.717 15.8572C156.547 16.314 155.477 16.9925 154.564 17.8553C153.67 18.7039 152.955 19.7238 152.464 20.8544C151.975 21.9727 151.725 23.1808 151.731 24.4013C151.741 25.6231 151.999 26.8302 152.489 27.9493C152.98 29.0684 153.692 30.0763 154.584 30.9118C156.438 32.6539 158.885 33.6248 161.429 33.6272C163.76 33.677 166.028 32.8724 167.806 31.3651V33.6272H171.14V24.7599C171.14 24.7205 171.14 24.6811 171.14 24.6417L171.144 24.4013ZM167.317 26.7344C166.994 27.4742 166.52 28.1386 165.926 28.6852C164.867 29.6743 163.507 30.2805 162.064 30.4074C160.613 30.5437 159.157 30.1944 157.926 29.4143C156.724 28.6576 155.827 27.5025 155.392 26.1511C154.967 24.8208 155.044 23.381 155.609 22.1037C156.188 20.8003 157.202 19.7388 158.478 19.1006C159.781 18.4442 161.265 18.2377 162.698 18.5134C164.118 18.7746 165.408 19.5095 166.356 20.5982C167.276 21.6551 167.787 23.0075 167.794 24.4092C167.804 25.2095 167.642 26.0026 167.317 26.7344Z" fill="#004964"/>
<path d="M86.9207 17.5911C86.8199 17.4954 86.7005 17.4217 86.5699 17.3743C86.4362 17.326 86.2942 17.3046 86.1522 17.3113H72.2798C72.1378 17.3046 71.9958 17.326 71.8621 17.3743C71.7315 17.4217 71.6121 17.4954 71.5113 17.5911C71.4124 17.6855 71.3346 17.7996 71.2827 17.9261C71.2326 18.0511 71.211 18.1857 71.2197 18.3202V19.7035C71.211 19.8379 71.2326 19.9726 71.2827 20.0976C71.3366 20.2229 71.4142 20.3367 71.5113 20.4325C71.6157 20.5317 71.7399 20.6076 71.8758 20.6551C72.0117 20.7027 72.1561 20.7209 72.2995 20.7084H83.4526C83.0116 23.366 81.609 25.7687 79.5116 27.4594C77.3544 29.2048 74.6605 30.1514 71.8857 30.1393C69.8273 30.1424 67.8103 29.5616 66.0688 28.4643C64.2849 27.3643 62.8052 25.8345 61.7652 24.0149C60.7391 22.2547 60.1954 20.2551 60.1888 18.2177C60.1914 16.186 60.7355 14.1916 61.7652 12.4402C62.8093 10.6289 64.2884 9.10647 66.0688 8.01046C67.8103 6.91319 69.8273 6.3324 71.8857 6.33552C74.8234 6.29326 77.67 7.35509 79.8623 9.31099L79.8899 9.3307C80.0749 9.48509 80.3072 9.57134 80.5481 9.57504C80.6905 9.57116 80.8309 9.5404 80.9619 9.48439C81.0906 9.43075 81.2073 9.35167 81.3047 9.25188L82.3215 8.29027C82.4313 8.19389 82.5198 8.0758 82.5816 7.94345C82.6401 7.81202 82.6697 7.66956 82.6683 7.52571C82.6626 7.38806 82.6263 7.25342 82.5619 7.13161C82.4972 7.01012 82.4072 6.90396 82.2979 6.82027C79.442 4.2537 75.7209 2.86267 71.8818 2.92654C69.8434 2.93202 67.8291 3.3671 65.9702 4.20343C64.1383 4.99938 62.4786 6.1438 61.0834 7.57301C59.7218 8.99348 58.6271 10.6475 57.8517 12.4559C57.0408 14.2827 56.6194 16.2584 56.6143 18.2571C56.6472 22.0508 58.1012 25.6943 60.6893 28.4683C61.9792 29.8345 63.4785 30.9865 65.1308 31.8812C66.8305 32.8179 68.7126 33.3759 70.6482 33.5167C70.999 33.5443 71.3537 33.5561 71.7084 33.5561C73.4275 33.5409 75.1342 33.2617 76.7686 32.7285C79.7897 31.7183 82.4185 29.7873 84.2859 27.2067C86.1534 24.626 87.1657 21.5253 87.1808 18.3399C87.1895 18.2054 87.1679 18.0708 87.1177 17.9458C87.0777 17.815 87.0106 17.6941 86.9207 17.5911Z" fill="#004964"/>
<path d="M97.8763 15.7901V15.1713C97.7268 15.1595 97.5765 15.1595 97.427 15.1713C95.7203 15.1569 94.039 15.586 92.548 16.4167C92.0372 16.6983 91.5519 17.0241 91.0977 17.3901C90.0541 18.235 89.2057 19.2958 88.611 20.4996C88.0286 21.6848 87.7214 22.9861 87.7124 24.3066V33.6271H91.0347V24.3066C91.0354 24.0639 91.0539 23.8215 91.0898 23.5815C91.2754 22.2609 91.9167 21.0467 92.9027 20.1488C93.347 19.7233 93.85 19.3636 94.3964 19.0808C95.282 17.726 96.4742 16.5987 97.8763 15.7901Z" fill="#004964"/>
</svg>
